<mxfile host="app.diagrams.net" modified="2021-03-10T15:22:55.174Z" agent="5.0 (Windows NT 10.0; Win64; x64) AppleWebKit/537.36 (KHTML, like Gecko) Chrome/88.0.4324.190 Safari/537.36" etag="7z8olEb7QErVd9TMfri0" version="14.4.6" type="github">
  <diagram id="8iyeMs17-TxsVXM5nuPv" name="Page-1">
    <mxGraphModel dx="1220" dy="1148" grid="1" gridSize="10" guides="1" tooltips="1" connect="1" arrows="1" fold="1" page="1" pageScale="1" pageWidth="850" pageHeight="1100" math="0" shadow="0">
      <root>
        <mxCell id="0" />
        <mxCell id="1" parent="0" />
        <mxCell id="Nj7dTNuCeWEjAKC8uGGV-1" value="Account" style="text;html=1;strokeColor=none;fillColor=none;align=center;verticalAlign=middle;whiteSpace=wrap;rounded=0;fontSize=24;fontStyle=1" vertex="1" parent="1">
          <mxGeometry x="50" y="90" width="80" height="20" as="geometry" />
        </mxCell>
        <mxCell id="Nj7dTNuCeWEjAKC8uGGV-2" value="Register" style="text;html=1;strokeColor=none;fillColor=none;align=center;verticalAlign=middle;whiteSpace=wrap;rounded=0;fontSize=20;" vertex="1" parent="1">
          <mxGeometry x="100" y="130" width="40" height="20" as="geometry" />
        </mxCell>
        <mxCell id="Nj7dTNuCeWEjAKC8uGGV-3" value="Login" style="text;html=1;strokeColor=none;fillColor=none;align=center;verticalAlign=middle;whiteSpace=wrap;rounded=0;fontSize=20;" vertex="1" parent="1">
          <mxGeometry x="90" y="170" width="40" height="20" as="geometry" />
        </mxCell>
        <mxCell id="Nj7dTNuCeWEjAKC8uGGV-5" value="POST" style="rounded=0;whiteSpace=wrap;html=1;fontSize=20;" vertex="1" parent="1">
          <mxGeometry x="170" y="125" width="70" height="30" as="geometry" />
        </mxCell>
        <mxCell id="Nj7dTNuCeWEjAKC8uGGV-6" value="POST" style="rounded=0;whiteSpace=wrap;html=1;fontSize=20;" vertex="1" parent="1">
          <mxGeometry x="170" y="165" width="70" height="30" as="geometry" />
        </mxCell>
        <mxCell id="Nj7dTNuCeWEjAKC8uGGV-7" value="UserToDo" style="text;html=1;strokeColor=none;fillColor=none;align=center;verticalAlign=middle;whiteSpace=wrap;rounded=0;fontSize=24;fontStyle=1" vertex="1" parent="1">
          <mxGeometry x="60" y="250" width="80" height="20" as="geometry" />
        </mxCell>
        <mxCell id="Nj7dTNuCeWEjAKC8uGGV-8" value="upsert" style="text;html=1;strokeColor=none;fillColor=none;align=center;verticalAlign=middle;whiteSpace=wrap;rounded=0;fontSize=20;" vertex="1" parent="1">
          <mxGeometry x="100" y="290" width="40" height="20" as="geometry" />
        </mxCell>
        <mxCell id="Nj7dTNuCeWEjAKC8uGGV-9" value="get all user pending&lt;br&gt;" style="text;html=1;strokeColor=none;fillColor=none;align=center;verticalAlign=middle;whiteSpace=wrap;rounded=0;fontSize=20;" vertex="1" parent="1">
          <mxGeometry x="80" y="330" width="200" height="20" as="geometry" />
        </mxCell>
        <mxCell id="Nj7dTNuCeWEjAKC8uGGV-10" value="POST" style="rounded=0;whiteSpace=wrap;html=1;fontSize=20;" vertex="1" parent="1">
          <mxGeometry x="310" y="285" width="90" height="30" as="geometry" />
        </mxCell>
        <mxCell id="Nj7dTNuCeWEjAKC8uGGV-11" value="GET" style="rounded=0;whiteSpace=wrap;html=1;fontSize=20;" vertex="1" parent="1">
          <mxGeometry x="310" y="325" width="90" height="30" as="geometry" />
        </mxCell>
        <mxCell id="Nj7dTNuCeWEjAKC8uGGV-12" value="get all user completed" style="text;html=1;strokeColor=none;fillColor=none;align=center;verticalAlign=middle;whiteSpace=wrap;rounded=0;fontSize=20;" vertex="1" parent="1">
          <mxGeometry x="90" y="370" width="200" height="20" as="geometry" />
        </mxCell>
        <mxCell id="Nj7dTNuCeWEjAKC8uGGV-13" value="GET" style="rounded=0;whiteSpace=wrap;html=1;fontSize=20;" vertex="1" parent="1">
          <mxGeometry x="310" y="365" width="90" height="30" as="geometry" />
        </mxCell>
        <mxCell id="Nj7dTNuCeWEjAKC8uGGV-14" value="delete" style="text;html=1;strokeColor=none;fillColor=none;align=center;verticalAlign=middle;whiteSpace=wrap;rounded=0;fontSize=20;" vertex="1" parent="1">
          <mxGeometry x="100" y="410" width="40" height="20" as="geometry" />
        </mxCell>
        <mxCell id="Nj7dTNuCeWEjAKC8uGGV-15" value="DELETE" style="rounded=0;whiteSpace=wrap;html=1;fontSize=20;" vertex="1" parent="1">
          <mxGeometry x="310" y="405" width="90" height="30" as="geometry" />
        </mxCell>
      </root>
    </mxGraphModel>
  </diagram>
</mxfile>
